<svg
  xmlns="http://www.w3.org/2000/svg"
  viewBox="0 0 128 128"
  width="128"
  height="128"
>
  <defs>
    <linearGradient id="bg" x1="0" y1="0" x2="1" y2="1">
      <stop offset="0%" stop-color="#0f6bbd" />
      <stop offset="55%" stop-color="#0f5aa2" />
      <stop offset="100%" stop-color="#0d3f78" />
    </linearGradient>
    <radialGradient id="glow" cx="24%" cy="18%" r="75%">
      <stop offset="0%" stop-color="#7dd3fc" stop-opacity="0.6" />
      <stop offset="70%" stop-color="#7dd3fc" stop-opacity="0" />
    </radialGradient>
    <linearGradient id="linkStroke" x1="0" y1="0" x2="1" y2="1">
      <stop offset="0%" stop-color="#f8fbff" />
      <stop offset="100%" stop-color="#dbeafe" />
    </linearGradient>
  </defs>

  <rect x="8" y="8" width="112" height="112" rx="28" fill="url(#bg)" />
  <rect x="8" y="8" width="112" height="112" rx="28" fill="url(#glow)" />
  <rect x="8" y="8" width="112" height="112" rx="28" fill="none" stroke="#0b2f59" stroke-opacity="0.35" stroke-width="2" />

  <g transform="rotate(-9 64 64)" fill="none" stroke="url(#linkStroke)" stroke-width="10" stroke-linecap="round" stroke-linejoin="round">
    <path d="M51 45H40a19 19 0 0 0 0 38h11" />
    <path d="M77 45h11a19 19 0 0 1 0 38H77" />
    <path d="M50 64h28" />
  </g>

  <circle cx="96" cy="33" r="6" fill="#f8fafc" fill-opacity="0.95" />
  <path d="M96 22v5M96 39v5M85 33h5M102 33h5" stroke="#f8fafc" stroke-width="3" stroke-linecap="round" />
</svg>
